<svg width="25" height="62" fill="none" xmlns="http://www.w3.org/2000/svg"><path d="M17.09 1l.378-.329L17.09.24l-.377.431.377.329zM4.778 49.395l.236-.44-.236.44zm6.505-7.676l.478-.144-.478.144zm6.288 19.137l-5.81-19.281-.957.288 5.81 19.281.957-.288zM4.54 49.836l1.379.74.472-.882-1.378-.74-.473.882zm13.05-6.246V1h-1v42.59h1zM16.715.671l-6.91 7.917.754.657 6.909-7.916-.754-.658zm0 .658l6.91 7.916.753-.657L17.467.67l-.753.658zM5.92 50.575c5.28 2.832 11.672-.993 11.672-6.985h-1c0 5.236-5.586 8.579-10.2 6.104l-.472.881zm-4.771-9.063a7.048 7.048 0 003.392 8.324l.473-.881a6.048 6.048 0 01-2.911-7.143l-.954-.3zm10.612.063c-1.577-5.235-8.974-5.279-10.612-.063l.954.3c1.343-4.276 7.408-4.24 8.7.051l.958-.288z" fill="#250101"/></svg>