<svg width="62" height="25" fill="none" xmlns="http://www.w3.org/2000/svg"><path d="M1 7.91l-.329-.378-.431.377.431.377L1 7.909zm48.395 12.313l-.44-.236.44.236zm-7.676-6.505l-.144-.478.144.478zM60.856 7.43l-19.281 5.81.288.957 19.281-5.81-.288-.957zm-11.02 13.03l.74-1.379-.882-.472-.74 1.378.882.473zM43.59 7.41H1v1h42.59v-1zM.671 8.285l7.917 6.909.657-.754L1.33 7.532l-.658.754zm.658 0l7.916-6.91-.657-.753L.67 7.533l.658.753zM50.575 19.08c2.832-5.28-.993-11.672-6.985-11.672v1c5.236 0 8.579 5.586 6.104 10.2l.881.472zm-9.063 4.771a7.048 7.048 0 008.324-3.392l-.881-.473a6.048 6.048 0 01-7.143 2.911l-.3.954zm.063-10.612c-5.235 1.577-5.279 8.974-.063 10.612l.3-.954c-4.276-1.343-4.24-7.408.051-8.7l-.288-.958z" fill="#250101"/></svg>