<svg width="62" height="25" fill="none" xmlns="http://www.w3.org/2000/svg"><path d="M61 17.09l.329.378.431-.377-.431-.377-.329.377zM12.605 4.778l.44.236-.44-.236zm7.676 6.505l.144.478-.144-.478zM1.144 17.57l19.281-5.81-.288-.957-19.281 5.81.288.957zm11.02-13.03l-.74 1.379.882.472.74-1.378-.882-.473zm6.246 13.05H61v-1H18.41v1zm42.919-.876l-7.917-6.909-.657.754 7.916 6.909.658-.754zm-.658 0l-7.916 6.91.657.753 7.917-6.91-.658-.753zM11.425 5.92c-2.832 5.28.993 11.672 6.985 11.672v-1c-5.236 0-8.579-5.586-6.104-10.2l-.881-.472zm9.063-4.771a7.048 7.048 0 00-8.324 3.392l.881.473a6.048 6.048 0 017.143-2.911l.3-.954zm-.063 10.612c5.235-1.577 5.278-8.974.063-10.612l-.3.954c4.276 1.343 4.24 7.408-.051 8.7l.288.958z" fill="#250101"/></svg>