<svg width="42" height="42" fill="none" xmlns="http://www.w3.org/2000/svg"><path d="M12.837.375C6.18.375.708 5.839.708 12.504v16.992c0 6.658 5.464 12.129 12.13 12.129h16.991c6.658 0 12.13-5.464 12.13-12.129V12.504c0-6.658-5.465-12.129-12.13-12.129H12.837zm0 3.75H29.83a8.368 8.368 0 018.38 8.379v16.992a8.368 8.368 0 01-8.38 8.379H12.837a8.368 8.368 0 01-8.379-8.379V12.504a8.368 8.368 0 018.38-8.379zm19.57 4.102c-.944 0-1.699.754-1.699 1.699 0 .945.755 1.699 1.7 1.699.944 0 1.699-.754 1.699-1.7 0-.944-.755-1.698-1.7-1.698zM21.334 9.75c-6.189 0-11.25 5.061-11.25 11.25s5.061 11.25 11.25 11.25c6.19 0 11.25-5.061 11.25-11.25s-5.06-11.25-11.25-11.25zm0 3.75c4.168 0 7.5 3.332 7.5 7.5s-3.332 7.5-7.5 7.5a7.468 7.468 0 01-7.5-7.5c0-4.168 3.333-7.5 7.5-7.5z" fill="#250101"/></svg>