<svg width="168" height="92" fill="none" xmlns="http://www.w3.org/2000/svg"><g clip-path="url(#clip0_0_17)"><path d="M3.232 89.371l-1.844-4.936h-.03c.01.105.017.24.023.402a21.14 21.14 0 01.031 1.12v3.414H.761v-5.63h1.043l1.726 4.613h.031l1.757-4.613h1.036v5.63h-.698V85.91a18.607 18.607 0 01.031-1.057l.024-.41h-.032L3.812 89.37h-.58zm6.097-4.305c.36 0 .67.079.925.236.262.158.46.382.597.67.14.285.211.618.211 1.002v.418H8.183c.01.479.131.844.361 1.096.236.247.562.37.98.37.268 0 .503-.023.707-.07.209-.053.423-.126.643-.22v.606a3.075 3.075 0 01-.635.205c-.21.048-.458.071-.746.071-.397 0-.75-.081-1.059-.244a1.732 1.732 0 01-.713-.726c-.168-.326-.251-.723-.251-1.19 0-.463.075-.86.227-1.191a1.8 1.8 0 01.651-.765c.283-.179.61-.268.98-.268zm-.008.568c-.33 0-.591.107-.785.323-.188.21-.3.505-.337.883h2.142c0-.242-.037-.452-.11-.63a.89.89 0 00-.338-.419c-.146-.105-.337-.157-.572-.157zm4.734-.568c.517 0 .933.181 1.247.544.319.363.478.91.478 1.64 0 .479-.073.883-.22 1.215a1.614 1.614 0 01-.603.74 1.66 1.66 0 01-.91.245 1.75 1.75 0 01-.573-.086 1.587 1.587 0 01-.431-.221 1.829 1.829 0 01-.298-.308h-.047a9.302 9.302 0 01.047.694v1.735h-.69v-6.12h.564l.094.576h.032c.083-.12.183-.23.298-.33.12-.1.261-.18.423-.237.168-.058.364-.087.589-.087zm-.126.583c-.282 0-.51.056-.682.166a.901.901 0 00-.377.481c-.078.216-.12.489-.125.82v.134c0 .347.036.642.11.883.073.242.195.426.368.552.178.127.418.19.722.19.256 0 .465-.071.627-.213.168-.142.29-.334.369-.576.084-.247.125-.528.125-.844 0-.483-.094-.87-.282-1.159-.183-.289-.468-.434-.855-.434zm4.497-.583c.36 0 .67.079.925.236.262.158.46.382.597.67.14.285.211.618.211 1.002v.418h-2.878c.01.479.13.844.36 1.096.236.247.563.37.98.37.268 0 .503-.023.707-.07.209-.053.423-.126.643-.22v.606a3.074 3.074 0 01-.635.205c-.21.048-.458.071-.745.071-.398 0-.751-.081-1.06-.244a1.732 1.732 0 01-.713-.726c-.168-.326-.251-.723-.251-1.19 0-.463.075-.86.227-1.191a1.8 1.8 0 01.651-.765c.283-.179.61-.268.98-.268zm-.008.568c-.33 0-.591.107-.784.323-.189.21-.301.505-.338.883h2.142c0-.242-.037-.452-.11-.63a.89.89 0 00-.337-.419c-.147-.105-.338-.157-.573-.157zm5.22-.49h.753l-1.796 2.035 1.945 2.192h-.8l-1.898-2.144v2.144h-.69v-4.226h.69v2.05l1.796-2.05zm3.057-.078c.361 0 .67.079.926.236.262.158.46.382.596.67.141.285.212.618.212 1.002v.418H25.55c.01.479.13.844.361 1.096.235.247.562.37.98.37.267 0 .503-.023.707-.07.209-.053.423-.126.643-.22v.606a3.074 3.074 0 01-.636.205 3.37 3.37 0 01-.745.071c-.397 0-.75-.081-1.059-.244a1.732 1.732 0 01-.714-.726c-.167-.326-.25-.723-.25-1.19 0-.463.075-.86.227-1.191a1.8 1.8 0 01.65-.765c.283-.179.61-.268.981-.268zm-.007.568c-.33 0-.591.107-.785.323-.188.21-.3.505-.337.883h2.141c0-.242-.036-.452-.11-.63a.89.89 0 00-.337-.419c-.146-.105-.337-.157-.572-.157zm5.933 3.737h-.698v-3.65h-1.24a20.443 20.443 0 01-.195 1.71 5.493 5.493 0 01-.298 1.144c-.12.294-.264.51-.432.647a.902.902 0 01-.588.205c-.068 0-.136-.006-.204-.016a.43.43 0 01-.157-.04v-.52a.781.781 0 00.212.032c.115 0 .22-.048.314-.142.094-.095.177-.24.25-.434a4.52 4.52 0 00.212-.734c.063-.3.118-.651.165-1.056.047-.405.09-.862.126-1.372h2.533v4.227zm1.947-4.226v4.227h-.69v-4.227h.69zm-.337-1.585a.39.39 0 01.274.11c.084.068.126.179.126.331 0 .147-.042.258-.126.331a.388.388 0 01-.275.11.408.408 0 01-.29-.11c-.078-.073-.117-.183-.117-.33 0-.153.039-.264.117-.332a.408.408 0 01.29-.11zm4.077 1.585h.753l-1.796 2.034 1.945 2.192h-.8l-1.898-2.144v2.144h-.69v-4.226h.69v2.05l1.796-2.05zm6.087 0h.753l-1.797 2.034 1.946 2.192h-.8l-1.899-2.144v2.144h-.69v-4.226h.69v2.05l1.797-2.05zm3.057-.08c.36 0 .67.08.926.237.261.158.46.382.596.67.141.285.212.618.212 1.002v.418h-2.88c.011.479.132.844.362 1.096.235.247.562.37.98.37.267 0 .502-.023.706-.07.21-.053.424-.126.643-.22v.606a3.074 3.074 0 01-.635.205c-.21.048-.458.071-.745.071a2.24 2.24 0 01-1.06-.244 1.733 1.733 0 01-.713-.726c-.167-.326-.251-.723-.251-1.19 0-.463.076-.86.227-1.191a1.8 1.8 0 01.651-.765c.283-.179.61-.268.981-.268zm-.008.569c-.33 0-.59.107-.784.323-.188.21-.301.505-.338.883h2.142c0-.242-.037-.452-.11-.63a.89.89 0 00-.337-.419c-.147-.105-.338-.157-.573-.157zm8.436-.49v4.227h-5.702v-4.226h.69v3.643h1.812v-3.643h.69v3.643h1.82v-3.643h.69zm4.17.584h-1.374v3.644h-.682v-3.644h-1.357v-.583h3.412v.583zm2.296-.662c.361 0 .67.079.926.236.261.158.46.382.596.67.141.285.212.618.212 1.002v.418H61.2c.011.479.132.844.362 1.096.235.247.562.37.98.37.267 0 .502-.023.706-.07.21-.053.424-.126.644-.22v.606a3.074 3.074 0 01-.636.205c-.21.048-.458.071-.745.071a2.24 2.24 0 01-1.06-.244 1.732 1.732 0 01-.713-.726c-.167-.326-.25-.723-.25-1.19 0-.463.075-.86.227-1.191a1.8 1.8 0 01.65-.765c.283-.179.61-.268.981-.268zm-.008.568c-.33 0-.59.107-.784.323-.188.21-.3.505-.337.883h2.141c0-.242-.036-.452-.11-.63a.89.89 0 00-.337-.419c-.147-.105-.337-.157-.573-.157zm4.734-.568c.518 0 .933.181 1.247.544.32.363.479.91.479 1.64 0 .479-.074.883-.22 1.215a1.614 1.614 0 01-.604.74 1.66 1.66 0 01-.91.245 1.75 1.75 0 01-.573-.086 1.585 1.585 0 01-.431-.221 1.829 1.829 0 01-.298-.308h-.047c.01.09.02.203.031.34.01.136.016.254.016.354v1.735h-.69v-6.12h.564l.095.576h.03c.085-.12.184-.23.299-.33.12-.1.261-.18.424-.237.167-.058.363-.087.588-.087zm-.126.583c-.282 0-.51.056-.682.166a.9.9 0 00-.377.481c-.078.216-.12.489-.125.82v.134c0 .347.037.642.11.883.073.242.196.426.368.552.178.127.419.19.722.19.256 0 .465-.071.628-.213.167-.142.29-.334.368-.576.084-.247.126-.528.126-.844 0-.483-.094-.87-.283-1.159-.183-.289-.468-.434-.855-.434zm5.995-.504v3.643h.612v2.05h-.666v-1.466H69.96v1.466h-.66v-2.05h.338c.24-.337.44-.702.596-1.096.162-.4.282-.815.361-1.246.084-.436.128-.87.133-1.301h2.212zm-1.6.544a6.56 6.56 0 01-.165 1.112 7.328 7.328 0 01-.345 1.088 4.03 4.03 0 01-.478.899h1.922v-3.1h-.934zm3.649-.544v4.227h-.69v-4.227h.69zm-.338-1.585c.105 0 .196.037.275.11.083.068.125.179.125.331 0 .147-.042.258-.125.331a.389.389 0 01-.275.11.408.408 0 01-.29-.11c-.078-.073-.118-.183-.118-.33 0-.153.04-.264.118-.332a.408.408 0 01.29-.11zm5.191 7.27v-1.459h-.627v-1.884h-2.283v1.885h-.69v-4.227h.69v1.758h2.283v-1.758h.69v3.643h.62v2.042h-.683zm8.533-5.685l-1.733 2.05 1.883 2.177h-.785l-1.82-2.145v2.144h-.643v-2.144l-1.82 2.144h-.784l1.882-2.176-1.733-2.05h.753l1.702 2.05v-2.05h.643v2.05l1.71-2.05h.745zm2.432 6.119h-.69v-1.877l-1.647-4.242h.721l.879 2.318c.078.21.154.434.227.67.074.232.123.413.15.544h.039c.031-.13.08-.312.149-.544a8.39 8.39 0 01.227-.67l.87-2.318h.723l-1.648 4.242v1.877zm4.235-6.198c.518 0 .933.181 1.247.544.32.363.479.91.479 1.64 0 .479-.074.883-.22 1.215a1.614 1.614 0 01-.604.74 1.66 1.66 0 01-.91.245 1.75 1.75 0 01-.573-.086 1.587 1.587 0 01-.431-.221 1.829 1.829 0 01-.298-.308h-.047c.01.09.02.203.031.34.01.136.016.254.016.354v1.735h-.69v-6.12h.564l.094.576h.032c.084-.12.183-.23.298-.33.12-.1.261-.18.424-.237.167-.058.363-.087.588-.087zm-.126.583c-.282 0-.51.056-.682.166a.901.901 0 00-.377.481c-.078.216-.12.489-.125.82v.134c0 .347.036.642.11.883.073.242.196.426.368.552.178.127.419.19.722.19.256 0 .465-.071.628-.213.167-.142.29-.334.368-.576.084-.247.126-.528.126-.844 0-.483-.094-.87-.283-1.159-.183-.289-.468-.434-.855-.434zm5.438-.504v.583h-1.874v3.644h-.69v-4.227h2.564zm1.441 0v4.227h-.691v-4.227h.691zm-.338-1.585a.39.39 0 01.275.11c.084.068.125.179.125.331 0 .147-.041.258-.125.331a.39.39 0 01-.275.11.407.407 0 01-.29-.11c-.078-.073-.118-.183-.118-.33 0-.153.04-.264.118-.332a.407.407 0 01.29-.11zm2.697 1.506c.319 0 .597.044.832.134.235.084.418.21.549.378a.926.926 0 01.196.6c0 .257-.07.462-.212.615a1.243 1.243 0 01-.58.323v.032c.167.047.321.113.463.197a.977.977 0 01.337.331.952.952 0 01.133.528c0 .232-.065.442-.196.631-.125.19-.321.34-.588.45-.262.11-.599.165-1.012.165-.199 0-.39-.01-.573-.031a3.08 3.08 0 01-.486-.095 2.1 2.1 0 01-.377-.15v-.623c.178.084.387.16.628.229.246.068.513.103.8.103.209 0 .398-.024.565-.071a.897.897 0 00.408-.221.596.596 0 00.149-.426.575.575 0 00-.133-.394.81.81 0 00-.401-.237 2.33 2.33 0 00-.666-.079h-.565v-.567h.455c.361 0 .648-.048.863-.142a.517.517 0 00.329-.505.49.49 0 00-.251-.45c-.162-.1-.397-.15-.706-.15-.23 0-.434.024-.612.072a3.738 3.738 0 00-.572.197l-.243-.552c.224-.1.46-.174.706-.221a4.03 4.03 0 01.76-.071zm2.003.079h.737l.91 2.405c.052.142.099.279.141.41.047.131.089.26.126.386.036.121.065.24.086.355h.031a7.48 7.48 0 01.149-.512c.068-.216.139-.431.212-.647l.855-2.397h.745l-1.812 4.81a3.098 3.098 0 01-.353.686 1.337 1.337 0 01-1.176.623 1.99 1.99 0 01-.33-.024 2.163 2.163 0 01-.243-.039v-.552a4.7 4.7 0 00.204.031c.084.011.17.016.259.016a.854.854 0 00.416-.094.81.81 0 00.306-.26 1.57 1.57 0 00.211-.395l.22-.56-1.694-4.242zm10.282 0v4.227h-5.703v-4.227h.69v3.643h1.812v-3.643h.691v3.643h1.819v-3.643h.691zm1.956 0v4.227h-.69v-4.227h.69zm-.337-1.585c.105 0 .196.037.274.11.084.068.126.179.126.331 0 .147-.042.258-.126.331a.386.386 0 01-.274.11.407.407 0 01-.29-.11c-.079-.073-.118-.183-.118-.33 0-.153.039-.264.118-.332a.407.407 0 01.29-.11zm3.278 5.89c-.372 0-.704-.076-.997-.228a1.627 1.627 0 01-.682-.71c-.162-.32-.243-.73-.243-1.23 0-.52.086-.944.259-1.27.172-.326.405-.565.698-.717a2.189 2.189 0 011.012-.23c.214 0 .421.025.619.072.199.042.361.094.487.158l-.212.575a4.11 4.11 0 00-.439-.134 1.943 1.943 0 00-.471-.063c-.282 0-.515.06-.698.181-.183.121-.319.3-.408.537-.089.236-.133.53-.133.883 0 .336.044.623.133.86.089.236.222.415.4.536.178.12.4.181.667.181.23 0 .431-.024.604-.071a2.91 2.91 0 00.486-.173v.615a1.84 1.84 0 01-.471.165 2.539 2.539 0 01-.611.063zm2.694-4.305v4.227h-.69v-4.227h.69zm-.337-1.585a.39.39 0 01.274.11c.084.068.126.179.126.331 0 .147-.042.258-.126.331a.388.388 0 01-.274.11.407.407 0 01-.29-.11c-.079-.073-.118-.183-.118-.33 0-.153.039-.264.118-.332a.407.407 0 01.29-.11zm10.954 5.2a2 2 0 01-.81-.157 1.382 1.382 0 01-.556-.447 1.17 1.17 0 01-.209-.664h.634a.86.86 0 00.262.545c.156.145.383.217.679.217.283 0 .506-.07.667-.21a.7.7 0 00.249-.552.624.624 0 00-.144-.427.919.919 0 00-.36-.25 5.558 5.558 0 00-.582-.184 5.298 5.298 0 01-.725-.236 1.2 1.2 0 01-.464-.368c-.126-.171-.19-.4-.19-.684a1.186 1.186 0 01.719-1.11 1.89 1.89 0 01.791-.158c.427 0 .776.107 1.046.322.275.215.43.5.464.854h-.653a.7.7 0 00-.275-.46c-.161-.136-.375-.204-.641-.204-.248 0-.451.066-.608.198-.156.126-.235.306-.235.538a.6.6 0 00.137.408.974.974 0 00.347.243c.139.053.333.114.582.184.3.084.542.166.725.25.183.079.34.203.471.374.131.167.196.395.196.684 0 .223-.059.433-.177.63a1.301 1.301 0 01-.522.48 1.719 1.719 0 01-.818.184zm4.17-3.713c.27 0 .515.06.732.178.218.114.388.287.51.519.127.232.19.515.19.848v2.122h-.588v-2.037c0-.36-.09-.633-.268-.821-.179-.193-.423-.29-.733-.29-.313 0-.564.1-.751.296-.183.197-.275.485-.275.861v1.991h-.595v-4.863h.595v1.775c.118-.184.279-.327.484-.427.209-.101.442-.152.699-.152zm3.966 3.726c-.336 0-.64-.076-.915-.23a1.652 1.652 0 01-.64-.65 2.05 2.05 0 01-.229-.986c0-.368.078-.692.235-.972.161-.285.379-.502.654-.651a1.86 1.86 0 01.921-.23c.34 0 .648.077.922.23.275.15.49.363.647.644.161.28.242.607.242.98 0 .372-.083.7-.248.985-.162.28-.382.497-.66.65-.28.154-.589.23-.929.23zm0-.525c.213 0 .414-.05.602-.151.187-.101.337-.252.451-.454.117-.202.176-.447.176-.736s-.057-.534-.17-.736a1.09 1.09 0 00-.444-.447 1.218 1.218 0 00-.595-.15c-.218 0-.418.05-.601.15a1.06 1.06 0 00-.432.447 1.53 1.53 0 00-.163.736c0 .294.052.541.157.743.108.201.252.353.431.453.178.097.375.145.588.145zm7.391-3.135l-1.118 3.601h-.614l-.863-2.858-.863 2.858h-.615l-1.124-3.6h.608l.824 3.022.889-3.023h.608l.869 3.03.811-3.03h.588zm4.898-.066c.279 0 .528.06.745.178.219.114.391.287.517.519.127.232.189.515.189.848v2.122h-.588v-2.037c0-.36-.089-.633-.268-.821-.174-.193-.412-.29-.713-.29-.309 0-.555.101-.738.303-.183.197-.275.484-.275.86v1.985h-.588v-2.037c0-.36-.089-.633-.268-.821-.174-.193-.412-.29-.713-.29-.309 0-.555.101-.738.303-.183.197-.275.484-.275.86v1.985h-.595v-3.6h.595v.518c.118-.188.275-.333.471-.433.2-.101.421-.152.66-.152.301 0 .567.068.798.204.231.136.403.335.516.598.101-.254.266-.451.497-.591.231-.14.488-.21.771-.21zm2.205 1.854c0-.368.074-.69.222-.966.149-.281.351-.498.608-.651a1.69 1.69 0 01.87-.23c.313 0 .586.068.817.204.231.136.403.307.516.512v-.657h.602v3.601h-.602v-.67a1.42 1.42 0 01-.529.526 1.57 1.57 0 01-.811.203 1.618 1.618 0 01-1.471-.9 2.078 2.078 0 01-.222-.972zm3.033.006c0-.271-.054-.508-.163-.71a1.125 1.125 0 00-.445-.46 1.158 1.158 0 00-.608-.164 1.147 1.147 0 00-1.046.618 1.47 1.47 0 00-.163.71c0 .276.054.517.163.722.11.202.255.357.438.467.183.105.386.158.608.158.223 0 .425-.053.608-.158a1.17 1.17 0 00.445-.467c.109-.205.163-.444.163-.716zm3.352-1.86c.436 0 .789.134 1.059.401.27.263.406.644.406 1.144v2.122h-.589v-2.037c0-.36-.089-.633-.268-.821-.179-.193-.423-.29-.732-.29-.314 0-.565.1-.752.296-.183.197-.274.485-.274.861v1.991h-.595v-3.6h.595v.512a1.18 1.18 0 01.477-.427c.205-.101.429-.152.673-.152zM13.422 75.572l-4.637-7.868H5.328v7.868H3.452V56.737H9.08c2.09 0 3.672.503 4.744 1.51 1.09 1.005 1.635 2.325 1.635 3.96 0 1.365-.393 2.532-1.18 3.502-.768.953-1.912 1.572-3.43 1.86l4.824 8.002h-2.251zm-8.094-9.404h3.779c1.465 0 2.564-.36 3.296-1.077.75-.719 1.126-1.68 1.126-2.883 0-1.24-.357-2.192-1.072-2.856-.715-.683-1.84-1.024-3.377-1.024H5.328v7.84zm13.264 2.021c0-1.509.295-2.829.885-3.96.607-1.15 1.438-2.03 2.492-2.64 1.072-.63 2.278-.944 3.618-.944 1.394 0 2.591.323 3.592.97 1.018.647 1.75 1.473 2.198 2.479V60.86h1.876v14.71h-1.877v-3.26c-.464 1.006-1.206 1.842-2.224 2.506-1 .647-2.198.97-3.591.97-1.323 0-2.52-.314-3.592-.943-1.054-.629-1.885-1.518-2.492-2.667-.59-1.15-.885-2.48-.885-3.988zm12.785.027c0-1.185-.242-2.227-.724-3.125-.483-.898-1.144-1.59-1.983-2.075a5.28 5.28 0 00-2.734-.727c-1.037 0-1.966.233-2.788.7-.822.467-1.474 1.15-1.956 2.048-.465.88-.697 1.93-.697 3.152 0 1.203.232 2.263.697 3.18.482.898 1.134 1.589 1.956 2.074.822.467 1.751.7 2.788.7 1 0 1.912-.242 2.733-.727.84-.485 1.501-1.176 1.984-2.075.482-.898.724-1.94.724-3.125zm19.104-7.355v14.71h-1.876v-2.586a4.51 4.51 0 01-1.984 2.102c-.893.484-1.894.727-3.002.727-1.75 0-3.18-.539-4.288-1.617-1.108-1.095-1.661-2.676-1.661-4.742v-8.594h1.849v8.379c0 1.599.393 2.82 1.18 3.664.803.845 1.893 1.266 3.269 1.266 1.411 0 2.537-.448 3.377-1.347.84-.898 1.26-2.218 1.26-3.96V60.86h1.876zm3.693 7.328c0-1.509.295-2.829.885-3.96.607-1.15 1.438-2.03 2.492-2.64 1.072-.63 2.278-.944 3.618-.944 1.394 0 2.591.323 3.592.97 1.019.647 1.75 1.473 2.198 2.479V60.86h1.876v14.71h-1.876v-3.26c-.465 1.006-1.206 1.842-2.225 2.506-1 .647-2.198.97-3.591.97-1.322 0-2.52-.314-3.592-.943-1.054-.629-1.885-1.518-2.492-2.667-.59-1.15-.885-2.48-.885-3.988zm12.785.027c0-1.185-.241-2.227-.724-3.125-.482-.898-1.144-1.59-1.983-2.075a5.279 5.279 0 00-2.734-.727c-1.036 0-1.965.233-2.787.7-.822.467-1.474 1.15-1.957 2.048-.465.88-.697 1.93-.697 3.152 0 1.203.233 2.263.697 3.18.483.898 1.135 1.589 1.957 2.074.822.467 1.75.7 2.787.7 1 0 1.912-.242 2.734-.727.84-.485 1.5-1.176 1.983-2.075.483-.898.724-1.94.724-3.125zm13.288-7.625c1.75 0 3.18.548 4.288 1.644 1.108 1.078 1.662 2.65 1.662 4.715v8.621h-1.85v-8.406c0-1.598-.401-2.82-1.205-3.664-.787-.844-1.868-1.266-3.243-1.266-1.412 0-2.538.449-3.377 1.347-.84.898-1.26 2.218-1.26 3.96v8.03h-1.876V60.86h1.876v2.505a4.718 4.718 0 012.01-2.047c.875-.485 1.867-.728 2.975-.728zM109.091 71.1h-8.522l-1.635 4.472H96.95l6.835-18.59h2.117l6.808 18.59h-1.984l-1.635-4.472zm-.562-1.563l-3.699-10.184-3.699 10.184h7.398zm6.602-1.347c0-1.509.304-2.829.911-3.96.608-1.15 1.438-2.03 2.493-2.64 1.072-.63 2.278-.944 3.618-.944 1.376 0 2.573.332 3.591.997 1.019.647 1.743 1.464 2.171 2.452V60.86h1.876v21.662h-1.876V72.338c-.428.988-1.161 1.815-2.197 2.48-1.019.646-2.225.969-3.619.969-1.322 0-2.519-.314-3.591-.943-1.054-.629-1.885-1.518-2.493-2.667-.589-1.15-.884-2.48-.884-3.988zm12.784.027c0-1.185-.241-2.227-.723-3.125-.483-.898-1.144-1.59-1.984-2.075-.821-.485-1.733-.727-2.733-.727-1.036 0-1.966.233-2.788.7-.821.467-1.474 1.15-1.956 2.048-.465.88-.697 1.93-.697 3.152 0 1.203.232 2.263.697 3.18.482.898 1.135 1.589 1.956 2.074.822.467 1.752.7 2.788.7 1 0 1.912-.242 2.733-.727.84-.485 1.501-1.176 1.984-2.075.482-.898.723-1.94.723-3.125zm5.57-.027c0-1.509.295-2.829.884-3.96.608-1.15 1.438-2.03 2.493-2.64 1.072-.63 2.278-.944 3.618-.944 1.394 0 2.591.323 3.591.97 1.019.647 1.752 1.473 2.198 2.479V60.86h1.876v14.71h-1.876v-3.26c-.465 1.006-1.206 1.842-2.224 2.506-1.001.647-2.198.97-3.592.97-1.322 0-2.519-.314-3.591-.943-1.055-.629-1.885-1.518-2.493-2.667-.589-1.15-.884-2.48-.884-3.988zm12.784.027c0-1.185-.241-2.227-.723-3.125-.483-.898-1.144-1.59-1.984-2.075-.821-.485-1.733-.727-2.734-.727-1.036 0-1.965.233-2.787.7-.822.467-1.474 1.15-1.956 2.048-.465.88-.697 1.93-.697 3.152 0 1.203.232 2.263.697 3.18.482.898 1.134 1.589 1.956 2.074.822.467 1.751.7 2.787.7 1.001 0 1.913-.242 2.734-.727.84-.485 1.501-1.176 1.984-2.075.482-.898.723-1.94.723-3.125zm13.289-7.625c1.751 0 3.18.548 4.288 1.644 1.108 1.078 1.661 2.65 1.661 4.715v8.621h-1.849v-8.406c0-1.598-.402-2.82-1.206-3.664-.786-.844-1.867-1.266-3.243-1.266-1.411 0-2.537.449-3.377 1.347-.84.898-1.26 2.218-1.26 3.96v8.03h-1.876V60.86h1.876v2.505a4.724 4.724 0 012.011-2.047c.875-.485 1.867-.728 2.975-.728z" fill="#fff"/><path d="M128.778 82.143v6.571" stroke="#fff" stroke-width="1.9"/><path d="M87.269 21.029l2.98 3.383a28.684 28.684 0 017.152 18.96" stroke="#fff" stroke-width="7"/><path d="M71.58 9.529v-6.9H97.4l-.113.442C94.111 15.44 84.733 25.243 72.56 28.914" stroke="#fff" stroke-width="7"/><path d="M68.965 41.729v2.3h4.576v-2.3h-4.576zm2.288-26.943l.253-2.286-2.541-.284v2.57h2.288zm8.925 4.423a2.284 2.284 0 002.993-1.239 2.305 2.305 0 00-1.233-3.007l-1.76 4.246zm-.798-2.826l-.88 2.123.88-2.123zm-5.84 25.346V14.786h-4.575v26.943h4.576zM71 17.072l3.467.387.505-4.572-3.466-.387L71 17.072zm7.5 1.434l1.678.703 1.76-4.246-1.678-.703-1.76 4.246zm-4.033-1.047c1.387.155 2.745.507 4.034 1.047l1.76-4.246a19.208 19.208 0 00-5.288-1.373l-.506 4.572z" fill="#fff"/></g><defs><clipPath id="clip0_0_17"><path fill="#fff" d="M0 0h168v92H0z"/></clipPath></defs></svg>