<svg width="24" height="24" fill="none" xmlns="http://www.w3.org/2000/svg"><path d="M20.36 15.14a30.97 30.97 0 01-3.15-.555 1.556 1.556 0 00-1.5.29c-.265.27-1.03 1.025-1.825 1.805a14.345 14.345 0 01-6.55-6.555c.775-.795 1.5-1.555 1.795-1.82a1.555 1.555 0 00.29-1.5 30.92 30.92 0 01-.555-3.155 1 1 0 00-1.15-.885h-4.26a.75.75 0 00-.68.685C2.5 7.295 4.645 11.41 5.08 12.2v.03l.06.115c1.557 2.7 3.8 4.943 6.5 6.5v0l.22.125c1 .53 4.975 2.53 8.69 2.255a.75.75 0 00.695-.68V16.29a1 1 0 00-.885-1.15z" stroke="#fff" stroke-linecap="round" stroke-linejoin="round"/></svg>